<?xml version="1.0" encoding="utf-8"?>
<!-- Generator: Adobe Illustrator 21.1.0, SVG Export Plug-In . SVG Version: 6.00 Build 0)  -->
<svg version="1.1" id="Layer_1" xmlns="http://www.w3.org/2000/svg" xmlns:xlink="http://www.w3.org/1999/xlink" x="0px" y="0px"
	 viewBox="0 0 363 149" style="enable-background:new 0 0 363 149;" xml:space="preserve">
<style type="text/css">
	.st0{fill:#134B8D;}
	.st1{fill:#FFFFFF;}
	.st2{fill:#CFD1D2;}
	.st3{clip-path:url(#XMLID_2_);fill:#134B8D;}
	.st4{clip-path:url(#XMLID_2_);fill:#124B8C;}
	.st5{clip-path:url(#XMLID_2_);fill:#114C8C;}
	.st6{clip-path:url(#XMLID_2_);fill:#0F4D8D;}
	.st7{clip-path:url(#XMLID_2_);fill:#0E4D8C;}
	.st8{clip-path:url(#XMLID_2_);fill:#0C4D8C;}
	.st9{clip-path:url(#XMLID_2_);fill:#094E8C;}
	.st10{clip-path:url(#XMLID_2_);fill:#064F8C;}
	.st11{clip-path:url(#XMLID_2_);fill:#064F8B;}
	.st12{clip-path:url(#XMLID_2_);fill:#03508B;}
	.st13{clip-path:url(#XMLID_2_);fill:#02508C;}
	.st14{clip-path:url(#XMLID_2_);fill:#01508B;}
	.st15{clip-path:url(#XMLID_2_);fill:#00528C;}
	.st16{clip-path:url(#XMLID_2_);fill:#00548D;}
	.st17{clip-path:url(#XMLID_2_);fill:#00538A;}
	.st18{clip-path:url(#XMLID_2_);fill:#00558B;}
	.st19{clip-path:url(#XMLID_2_);fill:#00568A;}
	.st20{clip-path:url(#XMLID_2_);fill:#00568B;}
	.st21{clip-path:url(#XMLID_2_);fill:#00578B;}
	.st22{clip-path:url(#XMLID_2_);fill:#00578A;}
	.st23{clip-path:url(#XMLID_2_);fill:#00588B;}
	.st24{clip-path:url(#XMLID_2_);fill:#06598B;}
	.st25{clip-path:url(#XMLID_2_);fill:#055B8B;}
	.st26{clip-path:url(#XMLID_2_);fill:#0B5B8A;}
	.st27{clip-path:url(#XMLID_2_);fill:#0B5C8B;}
	.st28{clip-path:url(#XMLID_2_);fill:#0C5B8A;}
	.st29{clip-path:url(#XMLID_2_);fill:#105B8A;}
	.st30{clip-path:url(#XMLID_2_);fill:#105D8A;}
	.st31{clip-path:url(#XMLID_2_);fill:#115D89;}
	.st32{clip-path:url(#XMLID_2_);fill:#145D89;}
	.st33{clip-path:url(#XMLID_2_);fill:#155E88;}
	.st34{clip-path:url(#XMLID_2_);fill:#165F88;}
	.st35{clip-path:url(#XMLID_2_);fill:#136189;}
	.st36{clip-path:url(#XMLID_2_);fill:#176189;}
	.st37{clip-path:url(#XMLID_2_);fill:#1C6287;}
	.st38{clip-path:url(#XMLID_2_);fill:#1A6287;}
	.st39{clip-path:url(#XMLID_2_);fill:#1D6388;}
	.st40{clip-path:url(#XMLID_2_);fill:#1B6288;}
	.st41{clip-path:url(#XMLID_2_);fill:#1C6388;}
	.st42{clip-path:url(#XMLID_2_);fill:#1D6386;}
	.st43{clip-path:url(#XMLID_2_);fill:#1F6386;}
	.st44{clip-path:url(#XMLID_2_);fill:#1E6486;}
	.st45{clip-path:url(#XMLID_2_);fill:#206486;}
	.st46{clip-path:url(#XMLID_2_);fill:#236586;}
	.st47{clip-path:url(#XMLID_2_);fill:#216586;}
	.st48{clip-path:url(#XMLID_2_);fill:#226685;}
	.st49{clip-path:url(#XMLID_2_);fill:#236685;}
	.st50{clip-path:url(#XMLID_2_);fill:#246886;}
	.st51{clip-path:url(#XMLID_2_);fill:#256885;}
	.st52{clip-path:url(#XMLID_2_);fill:#266885;}
	.st53{clip-path:url(#XMLID_2_);fill:#276A86;}
	.st54{clip-path:url(#XMLID_2_);fill:#276985;}
	.st55{clip-path:url(#XMLID_2_);fill:#286A85;}
	.st56{clip-path:url(#XMLID_2_);fill:#286A84;}
	.st57{clip-path:url(#XMLID_2_);fill:#296A83;}
	.st58{clip-path:url(#XMLID_2_);fill:#2A6C84;}
	.st59{clip-path:url(#XMLID_2_);fill:#2D6C83;}
	.st60{clip-path:url(#XMLID_2_);fill:#2B6D84;}
	.st61{clip-path:url(#XMLID_2_);fill:#2C6C83;}
	.st62{clip-path:url(#XMLID_2_);fill:#2D6D82;}
	.st63{clip-path:url(#XMLID_2_);fill:#2C6D82;}
	.st64{clip-path:url(#XMLID_2_);fill:#2E6E82;}
	.st65{clip-path:url(#XMLID_2_);fill:#2E6E83;}
	.st66{clip-path:url(#XMLID_2_);fill:#2E6F81;}
	.st67{clip-path:url(#XMLID_2_);fill:#306F81;}
	.st68{clip-path:url(#XMLID_2_);fill:#337081;}
	.st69{clip-path:url(#XMLID_2_);fill:#307282;}
	.st70{clip-path:url(#XMLID_2_);fill:#327180;}
	.st71{clip-path:url(#XMLID_2_);fill:#337280;}
	.st72{clip-path:url(#XMLID_2_);fill:#347280;}
	.st73{clip-path:url(#XMLID_2_);fill:#337380;}
	.st74{clip-path:url(#XMLID_2_);fill:#337480;}
	.st75{clip-path:url(#XMLID_2_);fill:#347480;}
	.st76{clip-path:url(#XMLID_2_);fill:#357680;}
	.st77{clip-path:url(#XMLID_2_);fill:#367780;}
	.st78{clip-path:url(#XMLID_2_);fill:#377880;}
	.st79{clip-path:url(#XMLID_2_);fill:#39777F;}
	.st80{clip-path:url(#XMLID_2_);fill:#38787F;}
	.st81{clip-path:url(#XMLID_2_);fill:#39787F;}
	.st82{clip-path:url(#XMLID_2_);fill:#397A80;}
	.st83{clip-path:url(#XMLID_2_);fill:#3C7A7E;}
	.st84{clip-path:url(#XMLID_2_);fill:#3A797E;}
	.st85{clip-path:url(#XMLID_2_);fill:#3D7A7E;}
	.st86{clip-path:url(#XMLID_2_);fill:#3B7C7E;}
	.st87{clip-path:url(#XMLID_2_);fill:#3D7C7D;}
	.st88{clip-path:url(#XMLID_2_);fill:#3C7C7D;}
	.st89{clip-path:url(#XMLID_2_);fill:#3C7C7E;}
	.st90{clip-path:url(#XMLID_2_);fill:#3D7D7E;}
	.st91{clip-path:url(#XMLID_2_);fill:#3D7D7D;}
	.st92{clip-path:url(#XMLID_2_);fill:#3E7E7D;}
	.st93{clip-path:url(#XMLID_2_);fill:#3F7F7C;}
	.st94{clip-path:url(#XMLID_2_);fill:#40807B;}
	.st95{clip-path:url(#XMLID_2_);fill:#41807B;}
	.st96{clip-path:url(#XMLID_2_);fill:#428179;}
	.st97{clip-path:url(#XMLID_2_);fill:#418079;}
	.st98{clip-path:url(#XMLID_2_);fill:#44827A;}
	.st99{clip-path:url(#XMLID_2_);fill:#458279;}
	.st100{clip-path:url(#XMLID_2_);fill:#458379;}
	.st101{clip-path:url(#XMLID_2_);fill:#458377;}
	.st102{clip-path:url(#XMLID_2_);fill:#458479;}
	.st103{clip-path:url(#XMLID_2_);fill:#478477;}
	.st104{clip-path:url(#XMLID_2_);fill:#468477;}
	.st105{clip-path:url(#XMLID_2_);fill:#498578;}
	.st106{clip-path:url(#XMLID_2_);fill:#478677;}
	.st107{clip-path:url(#XMLID_2_);fill:#4A8676;}
	.st108{clip-path:url(#XMLID_2_);fill:#4B8776;}
	.st109{clip-path:url(#XMLID_2_);fill:#4B8775;}
	.st110{clip-path:url(#XMLID_2_);fill:#4C8874;}
	.st111{clip-path:url(#XMLID_2_);fill:#4C8A74;}
	.st112{clip-path:url(#XMLID_2_);fill:#4D8974;}
	.st113{clip-path:url(#XMLID_2_);fill:#4D8A73;}
	.st114{clip-path:url(#XMLID_2_);fill:#4D8A72;}
	.st115{clip-path:url(#XMLID_2_);fill:#4E8B73;}
	.st116{clip-path:url(#XMLID_2_);fill:#4F8C72;}
	.st117{clip-path:url(#XMLID_2_);fill:#508C72;}
	.st118{clip-path:url(#XMLID_2_);fill:#508C71;}
	.st119{clip-path:url(#XMLID_2_);fill:#518D71;}
	.st120{clip-path:url(#XMLID_2_);fill:#508E70;}
	.st121{clip-path:url(#XMLID_2_);fill:#528E70;}
	.st122{clip-path:url(#XMLID_2_);fill:#528F71;}
	.st123{clip-path:url(#XMLID_2_);fill:#519070;}
	.st124{clip-path:url(#XMLID_2_);fill:#529170;}
	.st125{clip-path:url(#XMLID_2_);fill:#53906F;}
	.st126{clip-path:url(#XMLID_2_);fill:#54906F;}
	.st127{clip-path:url(#XMLID_2_);fill:#54916E;}
	.st128{clip-path:url(#XMLID_2_);fill:#55926E;}
	.st129{clip-path:url(#XMLID_2_);fill:#55926D;}
	.st130{clip-path:url(#XMLID_2_);fill:#57936D;}
	.st131{clip-path:url(#XMLID_2_);fill:#55936D;}
	.st132{clip-path:url(#XMLID_2_);fill:#56946B;}
	.st133{clip-path:url(#XMLID_2_);fill:#56956B;}
	.st134{clip-path:url(#XMLID_2_);fill:#58956A;}
	.st135{clip-path:url(#XMLID_2_);fill:#58966A;}
	.st136{clip-path:url(#XMLID_2_);fill:#589669;}
	.st137{clip-path:url(#XMLID_2_);fill:#589769;}
	.st138{clip-path:url(#XMLID_2_);fill:#599769;}
	.st139{clip-path:url(#XMLID_2_);fill:#599768;}
	.st140{clip-path:url(#XMLID_2_);fill:#599868;}
	.st141{clip-path:url(#XMLID_2_);fill:#5B9967;}
	.st142{clip-path:url(#XMLID_2_);fill:#5D9A66;}
	.st143{clip-path:url(#XMLID_2_);fill:#5D9B65;}
	.st144{clip-path:url(#XMLID_2_);fill:#5E9C64;}
	.st145{clip-path:url(#XMLID_2_);fill:#5E9C63;}
	.st146{clip-path:url(#XMLID_2_);fill:#5F9D63;}
	.st147{clip-path:url(#XMLID_2_);fill:#609E63;}
	.st148{clip-path:url(#XMLID_2_);fill:#609E62;}
	.st149{clip-path:url(#XMLID_2_);fill:#619E61;}
	.st150{clip-path:url(#XMLID_2_);fill:#609F61;}
	.st151{clip-path:url(#XMLID_2_);fill:#619F60;}
	.st152{clip-path:url(#XMLID_2_);fill:#61A05F;}
	.st153{clip-path:url(#XMLID_2_);fill:#63A15E;}
	.st154{clip-path:url(#XMLID_2_);fill:#63A15D;}
	.st155{clip-path:url(#XMLID_2_);fill:#64A25D;}
	.st156{clip-path:url(#XMLID_2_);fill:#64A25C;}
	.st157{clip-path:url(#XMLID_2_);fill:#65A35D;}
	.st158{clip-path:url(#XMLID_2_);fill:#65A35C;}
	.st159{clip-path:url(#XMLID_2_);fill:#66A45A;}
	.st160{clip-path:url(#XMLID_2_);fill:#67A65A;}
	.st161{clip-path:url(#XMLID_2_);fill:#68A659;}
	.st162{clip-path:url(#XMLID_2_);fill:#68A658;}
	.st163{clip-path:url(#XMLID_2_);fill:#69A757;}
	.st164{clip-path:url(#XMLID_2_);fill:#69A856;}
	.st165{clip-path:url(#XMLID_2_);fill:#6AA955;}
	.st166{clip-path:url(#XMLID_2_);fill:#6CAA54;}
	.st167{clip-path:url(#XMLID_2_);fill:#6BAB53;}
	.st168{clip-path:url(#XMLID_2_);fill:#6DAC51;}
	.st169{clip-path:url(#XMLID_2_);fill:#6EAD51;}
	.st170{clip-path:url(#XMLID_2_);fill:#6FAC50;}
	.st171{clip-path:url(#XMLID_2_);fill:#6FAD50;}
	.st172{clip-path:url(#XMLID_2_);fill:#70AE4F;}
	.st173{clip-path:url(#XMLID_2_);fill:#70AE4E;}
	.st174{clip-path:url(#XMLID_2_);fill:#71AF4E;}
	.st175{clip-path:url(#XMLID_2_);fill:#72B04E;}
	.st176{clip-path:url(#XMLID_2_);fill:#72B04D;}
	.st177{clip-path:url(#XMLID_2_);fill:#73B14C;}
	.st178{clip-path:url(#XMLID_2_);fill:#72B24C;}
	.st179{clip-path:url(#XMLID_2_);fill:#74B24B;}
	.st180{clip-path:url(#XMLID_2_);fill:#74B24A;}
	.st181{clip-path:url(#XMLID_2_);fill:#75B44B;}
	.st182{clip-path:url(#XMLID_2_);fill:#75B44A;}
	.st183{clip-path:url(#XMLID_2_);fill:#76B449;}
	.st184{clip-path:url(#XMLID_2_);fill:#76B549;}
	.st185{clip-path:url(#XMLID_2_);fill:#76B648;}
	.st186{clip-path:url(#XMLID_2_);fill:#78B847;}
	.st187{clip-path:url(#XMLID_2_);fill:#79B947;}
	.st188{clip-path:url(#XMLID_2_);fill:#7AB945;}
	.st189{clip-path:url(#XMLID_2_);fill:#7BBA44;}
	.st190{clip-path:url(#XMLID_2_);fill:#7BBA43;}
	.st191{clip-path:url(#XMLID_2_);fill:#7CBD43;}
	.st192{clip-path:url(#XMLID_2_);fill:#7CBD42;}
	.st193{clip-path:url(#XMLID_2_);fill:#7CBE43;}
	.st194{clip-path:url(#XMLID_2_);fill:#7CC043;}
	.st195{clip-path:url(#XMLID_2_);fill:#7DC143;}
</style>
<path id="XMLID_990_" class="st0" d="M197,82.7v8.5h-5.5v9.2h-10.2v-9.2h-19.3v-7.6l12.1-26h10.6l-11.4,25.1h8v-9.1h10.2v9.1H197z"
	/>
<path id="XMLID_988_" class="st0" d="M232.3,57.7h10.4v42.7h-9.8l-19.4-25.5v25.5h-10.4V57.7h9.8l19.4,25.7L232.3,57.7z"/>
<path id="XMLID_986_" class="st0" d="M251,57.7h33.7v8.9h-22.6v8h20.4v8.8l-20.4,0.1v8h23.2v8.9H251V57.7z"/>
<path id="XMLID_984_" class="st0" d="M344.5,57.7H356l-14.4,42.7h-11.5L322,71.3l-8.2,29.1h-11.5l-14.4-42.7h12l8.4,31.2l8.4-31.2
	h10.9l8.5,31.2L344.5,57.7z"/>
<g id="XMLID_10_">
	<g id="XMLID_976_">
		<g id="XMLID_982_">
			<path id="XMLID_983_" class="st1" d="M79.9,137.6c-34.9,0-63.2-28.4-63.2-63.2S45,11.2,79.9,11.2s63.2,28.4,63.2,63.2
				S114.7,137.6,79.9,137.6z"/>
		</g>
		<g id="XMLID_977_">
			<path id="XMLID_978_" class="st2" d="M79.9,14.4c33.1,0,60,26.9,60,60c0,33.1-26.9,60-60,60s-60-26.9-60-60
				C19.8,41.3,46.7,14.4,79.9,14.4 M79.9,8C43.2,8,13.4,37.8,13.4,74.4s29.8,66.4,66.4,66.4s66.4-29.8,66.4-66.4S116.5,8,79.9,8
				L79.9,8z"/>
		</g>
	</g>
	<g id="XMLID_219_">
		<g id="XMLID_220_">
			<g id="XMLID_225_">
				<defs>
					<circle id="XMLID_226_" cx="79.9" cy="74.4" r="54.1"/>
				</defs>
				<clipPath id="XMLID_2_">
					<use xlink:href="#XMLID_226_"  style="overflow:visible;"/>
				</clipPath>
				<rect id="XMLID_974_" x="25.8" y="20.3" class="st3" width="108.2" height="108.2"/>
				<path id="XMLID_973_" class="st3" d="M78.1,130.6H39.3v0.2c-6-2.5-11.6-5.6-16.9-9.2h1.2V18.2h112.5v91.3h12.5
					c-18,18-42.9,29.2-70.4,29.2V130.6z"/>
				<path id="XMLID_972_" class="st4" d="M78.1,138.4c-13.7,0-26.8-2.8-38.6-7.8c-5.9-2.5-11.6-5.6-16.9-9.2h1V18.2h112.5v91.1h12.2
					C130.3,127.3,105.5,138.4,78.1,138.4z"/>
				<path id="XMLID_971_" class="st5" d="M78.1,138c-13.7,0-26.7-2.8-38.5-7.8c-5.9-2.5-11.5-5.6-16.8-9.1h0.8v-103h112.5v90.9h12
					C130.2,127,105.4,138,78.1,138z"/>
				<path id="XMLID_970_" class="st5" d="M78.1,137.7c-13.6,0-26.6-2.8-38.4-7.7c-5.9-2.5-11.5-5.5-16.7-9.1h0.6V18.2h112.5v90.6
					h11.8C130,126.7,105.3,137.7,78.1,137.7z"/>
				<path id="XMLID_969_" class="st6" d="M78.1,137.4c-13.6,0-26.5-2.7-38.3-7.7c-5.9-2.5-11.5-5.5-16.7-9.1h0.4V18.2h112.5v90.4
					h11.5C129.8,126.4,105.3,137.4,78.1,137.4z"/>
				<path id="XMLID_968_" class="st7" d="M78.1,137c-27,0-51.5-11-69.3-28.7h14.8V18.2h112.5v90.2h11.3
					C129.6,126.1,105.2,137,78.1,137z"/>
				<path id="XMLID_967_" class="st8" d="M78.1,136.7c-27,0-51.4-10.9-69-28.6h14.5V18.2h112.5v89.9h11.1
					C129.5,125.8,105.1,136.7,78.1,136.7z"/>
				<path id="XMLID_966_" class="st8" d="M78.1,136.4c-26.9,0-51.2-10.9-68.8-28.5h14.3V18.2h112.5v89.7h10.8
					C129.3,125.5,105,136.4,78.1,136.4z"/>
				<path id="XMLID_965_" class="st8" d="M78.1,136c-26.8,0-51-10.9-68.6-28.4h14.1V18.2h112.5v89.5h10.6
					C129.1,125.2,104.9,136,78.1,136z"/>
				<path id="XMLID_964_" class="st9" d="M78.1,135.7c-26.7,0-50.8-10.8-68.3-28.3h13.8V18.2h112.5v89.2h10.4
					C129,124.9,104.8,135.7,78.1,135.7z"/>
				<path id="XMLID_963_" class="st9" d="M78.1,135.4c-26.6,0-50.7-10.8-68.1-28.2h13.6v-89h112.5v89h10.1
					C128.8,124.6,104.7,135.4,78.1,135.4z"/>
				<path id="XMLID_962_" class="st10" d="M78.1,135c-26.5,0-50.5-10.7-67.8-28.1h13.4V18.2h112.5v88.8h9.9
					C128.6,124.3,104.6,135,78.1,135z"/>
				<path id="XMLID_961_" class="st10" d="M78.1,134.7c-26.4,0-50.3-10.7-67.6-28h13.1V18.2h112.5v88.5h9.6
					C128.4,124,104.5,134.7,78.1,134.7z"/>
				<path id="XMLID_960_" class="st11" d="M78.1,134.4c-26.3,0-50.1-10.7-67.4-27.9h12.9V18.2h112.5v88.3h9.4
					C128.3,123.7,104.4,134.4,78.1,134.4z"/>
				<path id="XMLID_959_" class="st12" d="M78.1,134.1c-26.2,0-50-10.6-67.1-27.8h12.6V18.2h112.5v88.1h9.2
					C128.1,123.4,104.3,134.1,78.1,134.1z"/>
				<path id="XMLID_958_" class="st13" d="M78.1,133.7c-26.1,0-49.8-10.6-66.9-27.7h12.4V18.2h112.5V106h8.9
					C127.9,123.1,104.2,133.7,78.1,133.7z"/>
				<path id="XMLID_957_" class="st14" d="M78.1,133.4c-26,0-49.6-10.6-66.7-27.6h12.2V18.2h112.5v87.6h8.7
					C127.7,122.8,104.2,133.4,78.1,133.4z"/>
				<path id="XMLID_956_" class="st14" d="M78.1,133.1c-25.9,0-49.4-10.5-66.4-27.5h11.9V18.2h112.5v87.4h8.5
					C127.6,122.5,104.1,133.1,78.1,133.1z"/>
				<path id="XMLID_955_" class="st14" d="M78.1,132.7c-25.9,0-49.3-10.5-66.2-27.4h11.7V18.2h112.5v87.1h8.2
					C127.4,122.2,104,132.7,78.1,132.7z"/>
				<path id="XMLID_954_" class="st15" d="M78.1,132.4c-25.8,0-49.1-10.4-66-27.3h11.5V18.2h112.5v86.9h8
					C127.2,122,103.9,132.4,78.1,132.4z"/>
				<path id="XMLID_953_" class="st15" d="M78.1,132.1c-25.7,0-48.9-10.4-65.7-27.2h11.2V18.2h112.5v86.7h7.8
					C127,121.7,103.8,132.1,78.1,132.1z"/>
				<path id="XMLID_952_" class="st15" d="M78.1,131.7c-25.6,0-48.7-10.4-65.5-27.1h11V18.2h112.5v86.4h7.5
					C126.9,121.4,103.7,131.7,78.1,131.7z"/>
				<path id="XMLID_951_" class="st15" d="M78.1,131.4c-25.5,0-48.6-10.3-65.3-27h10.8V18.2h112.5v86.2h7.3
					C126.7,121.1,103.6,131.4,78.1,131.4z"/>
				<path id="XMLID_950_" class="st16" d="M78.1,131.1c-25.4,0-48.4-10.3-65-26.9h10.5V18.2h112.5v85.9h7.1
					C126.5,120.8,103.5,131.1,78.1,131.1z"/>
				<path id="XMLID_949_" class="st17" d="M78.1,130.7c-25.3,0-48.2-10.3-64.8-26.8h10.3V18.2h112.5v85.7h6.8
					C126.3,120.5,103.4,130.7,78.1,130.7z"/>
				<path id="XMLID_948_" class="st17" d="M78.1,130.4c-25.2,0-48-10.2-64.6-26.7h10.1V18.2h112.5v85.5h6.6
					C126.2,120.2,103.3,130.4,78.1,130.4z"/>
				<path id="XMLID_947_" class="st18" d="M78.1,130.1c-25.1,0-47.9-10.2-64.3-26.6h9.8V18.2h112.5v85.2h6.4
					C126,119.9,103.2,130.1,78.1,130.1z"/>
				<path id="XMLID_946_" class="st18" d="M78.1,129.7c-25,0-47.7-10.1-64.1-26.5h9.6v-85h112.5v85h6.1
					C125.8,119.6,103.1,129.7,78.1,129.7z"/>
				<path id="XMLID_945_" class="st18" d="M78.1,129.4c-24.9,0-47.5-10.1-63.9-26.5h9.4V18.2h112.5V103h5.9
					C125.6,119.3,103.1,129.4,78.1,129.4z"/>
				<path id="XMLID_944_" class="st18" d="M78.1,129.1c-24.8,0-47.3-10.1-63.6-26.4h9.1V18.2h112.5v84.5h5.7
					C125.5,119,103,129.1,78.1,129.1z"/>
				<path id="XMLID_943_" class="st18" d="M78.1,128.7c-24.8,0-47.2-10-63.4-26.3h8.9V18.2h112.5v84.3h5.4
					C125.3,118.7,102.9,128.7,78.1,128.7z"/>
				<path id="XMLID_942_" class="st18" d="M78.1,128.4c-24.7,0-47-10-63.2-26.2h8.7V18.2h112.5v84.1h5.2
					C125.1,118.4,102.8,128.4,78.1,128.4z"/>
				<path id="XMLID_941_" class="st19" d="M78.1,128.1c-24.6,0-46.8-10-62.9-26.1h8.4V18.2h112.5V102h5
					C124.9,118.1,102.7,128.1,78.1,128.1z"/>
				<path id="XMLID_940_" class="st20" d="M78.1,127.7c-24.5,0-46.6-9.9-62.7-26h8.2V18.2h112.5v83.6h4.7
					C124.8,117.8,102.6,127.7,78.1,127.7z"/>
				<path id="XMLID_939_" class="st21" d="M78.1,127.4c-24.4,0-46.5-9.9-62.5-25.9h8V18.2h112.5v83.4h4.5
					C124.6,117.5,102.5,127.4,78.1,127.4z"/>
				<path id="XMLID_938_" class="st22" d="M78.1,127.1c-24.3,0-46.3-9.8-62.2-25.8h7.7V18.2h112.5v83.1h4.3
					C124.4,117.2,102.4,127.1,78.1,127.1z"/>
				<path id="XMLID_937_" class="st22" d="M78.1,126.8c-24.2,0-46.1-9.8-62-25.7h7.5V18.2h112.5v82.9h4
					C124.2,116.9,102.3,126.8,78.1,126.8z"/>
				<path id="XMLID_936_" class="st23" d="M78.1,126.4c-24.1,0-45.9-9.8-61.7-25.6h7.3V18.2h112.5v82.7h3.8
					C124.1,116.6,102.2,126.4,78.1,126.4z"/>
				<path id="XMLID_935_" class="st23" d="M78.1,126.1c-24,0-45.8-9.7-61.5-25.5h7V18.2h112.5v82.4h3.5
					C123.9,116.4,102.1,126.1,78.1,126.1z"/>
				<path id="XMLID_934_" class="st24" d="M78.1,125.8c-23.9,0-45.6-9.7-61.3-25.4h6.8V18.2h112.5v82.2h3.3
					C123.7,116.1,102,125.8,78.1,125.8z"/>
				<path id="XMLID_933_" class="st24" d="M78.1,125.4c-23.8,0-45.4-9.7-61-25.3h6.5v-82h112.5v82h3.1
					C123.5,115.8,102,125.4,78.1,125.4z"/>
				<path id="XMLID_932_" class="st25" d="M78.1,125.1c-23.7,0-45.2-9.6-60.8-25.2h6.3V18.2h112.5v81.7h2.8
					C123.4,115.5,101.9,125.1,78.1,125.1z"/>
				<path id="XMLID_931_" class="st25" d="M78.1,124.8c-23.7,0-45.1-9.6-60.6-25.1h6.1V18.2h112.5v81.5h2.6
					C123.2,115.2,101.8,124.8,78.1,124.8z"/>
				<path id="XMLID_930_" class="st26" d="M78.1,124.4c-23.6,0-44.9-9.6-60.3-25h5.8V18.2h112.5v81.3h2.4
					C123,114.9,101.7,124.4,78.1,124.4z"/>
				<path id="XMLID_929_" class="st27" d="M78.1,124.1c-23.5,0-44.7-9.5-60.1-24.9h5.6v-81h112.5v81h2.1
					C122.8,114.6,101.6,124.1,78.1,124.1z"/>
				<path id="XMLID_928_" class="st28" d="M78.1,123.8c-23.4,0-44.5-9.5-59.9-24.8h5.4V18.2h112.5V99h1.9
					C122.7,114.3,101.5,123.8,78.1,123.8z"/>
				<path id="XMLID_927_" class="st29" d="M78.1,123.4c-23.3,0-44.4-9.4-59.6-24.7h5.1V18.2h112.5v80.6h1.7
					C122.5,114,101.4,123.4,78.1,123.4z"/>
				<path id="XMLID_926_" class="st30" d="M78.1,123.1c-23.2,0-44.2-9.4-59.4-24.6h4.9V18.2h112.5v80.3h1.4
					C122.3,113.7,101.3,123.1,78.1,123.1z"/>
				<path id="XMLID_925_" class="st30" d="M78.1,122.8c-23.1,0-44-9.4-59.2-24.5h4.7V18.2h112.5v80.1h1.2
					C122.1,113.4,101.2,122.8,78.1,122.8z"/>
				<path id="XMLID_924_" class="st31" d="M78.1,122.4c-23,0-43.9-9.3-58.9-24.4h4.4V18.2h112.5V98h1
					C122,113.1,101.1,122.4,78.1,122.4z"/>
				<path id="XMLID_923_" class="st32" d="M78.1,122.1c-22.9,0-43.7-9.3-58.7-24.3h4.2V18.2h112.5v79.6h0.7
					C121.8,112.8,101,122.1,78.1,122.1z"/>
				<path id="XMLID_922_" class="st32" d="M78.1,121.8c-22.8,0-43.5-9.3-58.5-24.2h4V18.2h112.5v79.4h0.5
					C121.6,112.5,100.9,121.8,78.1,121.8z"/>
				<path id="XMLID_921_" class="st33" d="M78.1,121.4c-22.7,0-43.3-9.2-58.2-24.1h3.7V18.2h112.5v79.1h0.3
					C121.4,112.2,100.9,121.4,78.1,121.4z"/>
				<path id="XMLID_920_" class="st33" d="M78.1,121.1c-22.6,0-43.2-9.2-58-24h3.5V18.2h112.5v78.9h0
					C121.3,111.9,100.8,121.1,78.1,121.1z"/>
				<path id="XMLID_919_" class="st33" d="M78.1,120.8c-22.6,0-43-9.1-57.8-23.9h3.3V18.2h112.5v66.6h9.8c-2.9,4.3-6.3,8.4-10,12.1
					C121.1,111.6,100.7,120.8,78.1,120.8z"/>
				<path id="XMLID_918_" class="st34" d="M78.1,120.4c-22.5,0-42.8-9.1-57.5-23.8h3V18.2h112.5v66.4h9.5c-2.9,4.3-6.3,8.4-9.9,12
					C120.9,111.3,100.6,120.4,78.1,120.4z"/>
				<path id="XMLID_917_" class="st35" d="M78.1,120.1c-22.4,0-42.6-9.1-57.3-23.7h2.8V18.2h112.5v66.2h9.2c-2.9,4.3-6.2,8.3-9.9,12
					C120.7,111,100.5,120.1,78.1,120.1z"/>
				<path id="XMLID_916_" class="st36" d="M78.1,119.8c-22.3,0-42.5-9-57.1-23.6h2.6v-78h112.5v66h8.9c-2.9,4.3-6.2,8.3-9.9,11.9
					C120.6,110.8,100.4,119.8,78.1,119.8z"/>
				<path id="XMLID_915_" class="st36" d="M78.1,119.5c-22.2,0-42.3-9-56.8-23.5h2.3V18.2h112.5V84h8.7c-2.9,4.3-6.2,8.3-9.8,11.9
					C120.4,110.5,100.3,119.5,78.1,119.5z"/>
				<path id="XMLID_914_" class="st37" d="M78.1,119.1c-22.1,0-42.1-9-56.6-23.4h2.1V18.2h112.5v65.7h8.4c-2.9,4.3-6.2,8.2-9.8,11.8
					C120.2,110.2,100.2,119.1,78.1,119.1z"/>
				<path id="XMLID_913_" class="st38" d="M78.1,118.8c-22,0-41.9-8.9-56.4-23.3h1.9V18.2h112.5v65.5h8.1c-2.9,4.2-6.1,8.2-9.7,11.8
					C120,109.9,100.1,118.8,78.1,118.8z"/>
				<path id="XMLID_912_" class="st37" d="M78.1,118.5c-21.9,0-41.8-8.9-56.1-23.2h1.6v-77h112.5v65.3h7.8
					c-2.9,4.2-6.1,8.2-9.7,11.7C119.9,109.6,100,118.5,78.1,118.5z"/>
				<path id="XMLID_911_" class="st39" d="M78.1,118.1c-21.8,0-41.6-8.8-55.9-23.1h1.4V18.2h112.5v51.7h14.9
					c-4,9.5-9.8,18-16.9,25.1C119.7,109.3,99.9,118.1,78.1,118.1z"/>
				<path id="XMLID_910_" class="st40" d="M78.1,117.8c-21.7,0-41.4-8.8-55.6-23.1h1.2V18.2h112.5v51.5h14.5
					c-4,9.4-9.7,17.9-16.9,25C119.5,109,99.8,117.8,78.1,117.8z"/>
				<path id="XMLID_909_" class="st41" d="M78.1,117.5c-21.6,0-41.2-8.8-55.4-23h0.9V18.2h112.5v51.4h14.2
					c-4,9.4-9.7,17.8-16.8,24.9C119.3,108.7,99.8,117.5,78.1,117.5z"/>
				<path id="XMLID_908_" class="st42" d="M78.1,117.1c-21.5,0-41.1-8.7-55.2-22.9h0.7V18.2h112.5v51.3H150
					c-3.9,9.3-9.7,17.7-16.7,24.8C119.2,108.4,99.7,117.1,78.1,117.1z"/>
				<path id="XMLID_907_" class="st43" d="M78.1,116.8c-21.5,0-40.9-8.7-54.9-22.8h0.4V18.2h112.5v51.2h13.6
					c-3.9,9.3-9.6,17.7-16.7,24.7C119,108.1,99.6,116.8,78.1,116.8z"/>
				<path id="XMLID_906_" class="st44" d="M78.1,116.5c-21.4,0-40.7-8.7-54.7-22.7h0.2V18.2h112.5v51h13.3
					c-3.9,9.3-9.6,17.6-16.6,24.6C118.8,107.8,99.5,116.5,78.1,116.5z"/>
				<path id="XMLID_905_" class="st45" d="M78.1,116.1c-21.3,0-40.5-8.6-54.5-22.6c-3.5-3.5-6.6-7.3-9.4-11.4h9.4v-64h112.5v50.9h13
					c-3.9,9.2-9.5,17.5-16.5,24.5C118.7,107.5,99.4,116.1,78.1,116.1z"/>
				<path id="XMLID_904_" class="st45" d="M78.1,115.8c-21.2,0-40.4-8.6-54.2-22.5c-3.5-3.5-6.6-7.3-9.4-11.4h9.1V18.2h112.5V69
					h12.7c-3.9,9.2-9.5,17.4-16.4,24.4C118.5,107.2,99.3,115.8,78.1,115.8z"/>
				<path id="XMLID_903_" class="st46" d="M78.1,115.5c-21.1,0-40.2-8.5-54-22.4c-3.5-3.5-6.6-7.2-9.3-11.3h8.8V18.2h112.5v50.6
					h12.4c-3.9,9.1-9.5,17.4-16.4,24.3C118.3,106.9,99.2,115.5,78.1,115.5z"/>
				<path id="XMLID_902_" class="st47" d="M78.1,115.1c-21,0-40-8.5-53.8-22.3c-3.4-3.4-6.6-7.2-9.3-11.3h8.6V18.2h112.5v50.5h12.1
					c-3.8,9.1-9.4,17.3-16.3,24.2C118.1,106.6,99.1,115.1,78.1,115.1z"/>
				<path id="XMLID_901_" class="st48" d="M78.1,114.8c-20.9,0-39.8-8.5-53.5-22.2c-3.4-3.4-6.5-7.2-9.2-11.2h8.3V18.2h112.5v50.4
					h11.8c-3.8,9.1-9.4,17.2-16.2,24.1C118,106.3,99,114.8,78.1,114.8z"/>
				<path id="XMLID_900_" class="st49" d="M78.1,114.5c-20.8,0-39.7-8.4-53.3-22.1c-3.4-3.4-6.5-7.1-9.2-11.2h8V18.2h112.5v50.3
					h11.5c-3.8,9-9.3,17.1-16.2,24C117.8,106,98.9,114.5,78.1,114.5z"/>
				<path id="XMLID_899_" class="st50" d="M78.1,114.1c-20.7,0-39.5-8.4-53.1-22C18.3,85.4,12.8,77.3,9,68.3h14.7V18.2h112.5v50.1
					h11.2c-3.8,9-9.3,17.1-16.1,23.9C117.6,105.7,98.8,114.1,78.1,114.1z"/>
				<path id="XMLID_898_" class="st50" d="M78.1,113.8c-20.6,0-39.3-8.4-52.8-21.9c-6.8-6.8-12.2-14.8-16-23.7h14.3v-50h112.5v50
					H147c-3.8,8.9-9.3,17-16,23.7C117.4,105.5,98.8,113.8,78.1,113.8z"/>
				<path id="XMLID_897_" class="st51" d="M78.1,113.5c-20.5,0-39.1-8.3-52.6-21.8C18.8,85,13.3,77,9.6,68.1h14V18.2h112.5v49.9
					h10.6c-3.8,8.9-9.2,16.9-15.9,23.6C117.3,105.2,98.7,113.5,78.1,113.5z"/>
				<path id="XMLID_896_" class="st52" d="M78.1,113.2c-20.4,0-39-8.3-52.4-21.7c-6.7-6.7-12.1-14.7-15.9-23.5h13.7V18.2h112.5v49.7
					h10.3c-3.7,8.9-9.2,16.8-15.9,23.5C117.1,104.9,98.6,113.2,78.1,113.2z"/>
				<path id="XMLID_895_" class="st51" d="M78.1,112.8c-20.4,0-38.8-8.3-52.1-21.6c-6.7-6.7-12.1-14.6-15.8-23.4h13.4V18.2h112.5
					v49.6h10c-3.7,8.8-9.1,16.8-15.8,23.4C116.9,104.6,98.5,112.8,78.1,112.8z"/>
				<path id="XMLID_894_" class="st53" d="M78.1,112.5c-20.3,0-38.6-8.2-51.9-21.5c-6.6-6.6-12-14.5-15.7-23.3h13.1V18.2h112.5v49.5
					h9.7C142,76.4,136.7,84.4,130,91C116.7,104.3,98.4,112.5,78.1,112.5z"/>
				<path id="XMLID_893_" class="st54" d="M78.1,112.2c-20.2,0-38.4-8.2-51.7-21.4c-6.6-6.6-12-14.5-15.7-23.2h12.8V18.2h112.5v49.4
					h9.4c-3.7,8.7-9,16.6-15.7,23.2C116.6,104,98.3,112.2,78.1,112.2z"/>
				<path id="XMLID_892_" class="st54" d="M78.1,111.8c-20.1,0-38.3-8.1-51.4-21.3c-6.6-6.6-11.9-14.4-15.6-23.1h12.5V18.2h112.5
					v20.9h14.8C150.8,79.3,118.3,111.8,78.1,111.8z"/>
				<path id="XMLID_891_" class="st55" d="M78.1,111.5c-20,0-38.1-8.1-51.2-21.2c-6.6-6.6-11.9-14.4-15.5-23h12.2V18.2h112.5v20.9
					h14.4C150.5,79.1,118.1,111.5,78.1,111.5z"/>
				<path id="XMLID_890_" class="st56" d="M78.1,111.2c-19.9,0-37.9-8.1-51-21.1c-6.5-6.5-11.8-14.3-15.4-22.9h11.9v-49h112.5v20.9
					h14.1C150.2,78.9,117.9,111.2,78.1,111.2z"/>
				<path id="XMLID_889_" class="st57" d="M78.1,110.8c-19.8,0-37.7-8-50.7-21C20.9,83.3,15.7,75.6,12,67h11.6V18.2h112.5v20.9h13.8
					C149.8,78.7,117.7,110.8,78.1,110.8z"/>
				<path id="XMLID_888_" class="st58" d="M78.1,110.5c-19.7,0-37.6-8-50.5-20.9c-6.5-6.5-11.7-14.2-15.3-22.7h11.3V18.2h112.5v20.9
					h13.4C149.5,78.5,117.6,110.5,78.1,110.5z"/>
				<path id="XMLID_887_" class="st59" d="M78.1,110.2c-19.6,0-37.4-8-50.3-20.8c-6.4-6.4-11.6-14.1-15.2-22.6h11V18.2h112.5v20.9
					h13.1C149.2,78.3,117.4,110.2,78.1,110.2z"/>
				<path id="XMLID_886_" class="st60" d="M78.1,109.8c-19.5,0-37.2-7.9-50-20.7c-6.4-6.4-11.6-14-15.2-22.5h10.7V18.2h112.5v20.9
					h12.8C148.9,78.2,117.2,109.8,78.1,109.8z"/>
				<path id="XMLID_885_" class="st61" d="M78.1,109.5c-19.4,0-37-7.9-49.8-20.6c-6.4-6.4-11.5-14-15.1-22.4h10.4V18.2h112.5v20.9
					h12.4C148.5,78,117,109.5,78.1,109.5z"/>
				<path id="XMLID_884_" class="st62" d="M78.1,109.2c-19.3,0-36.9-7.8-49.5-20.5c-6.3-6.3-11.5-13.9-15-22.3h10.1V18.2h112.5v20.9
					h12.1C148.2,77.8,116.8,109.2,78.1,109.2z"/>
				<path id="XMLID_883_" class="st63" d="M78.1,108.8c-19.3,0-36.7-7.8-49.3-20.4c-6.3-6.3-11.4-13.8-14.9-22.2h9.8V18.2h112.5
					v20.9h11.8C147.9,77.6,116.6,108.8,78.1,108.8z"/>
				<path id="XMLID_882_" class="st64" d="M78.1,108.5c-38.3,0-69.4-31.1-69.4-69.4h14.9V18.2h112.5v20.9h11.4
					C147.5,77.4,116.5,108.5,78.1,108.5z"/>
				<path id="XMLID_881_" class="st64" d="M78.1,108.2C40,108.2,9,77.2,9,39.1h14.6V18.2h112.5v20.9h11.1
					C147.2,77.2,116.3,108.2,78.1,108.2z"/>
				<path id="XMLID_880_" class="st65" d="M78.1,107.8c-38,0-68.7-30.8-68.7-68.7h14.2V18.2h112.5v20.9h10.8
					C146.9,77.1,116.1,107.8,78.1,107.8z"/>
				<path id="XMLID_879_" class="st66" d="M78.1,107.5c-37.8,0-68.4-30.6-68.4-68.4h13.9V18.2h112.5v20.9h10.4
					C146.5,76.9,115.9,107.5,78.1,107.5z"/>
				<path id="XMLID_878_" class="st67" d="M78.1,107.2C40.5,107.2,10,76.7,10,39.1h13.6V18.2h112.5v20.9h10.1
					C146.2,76.7,115.7,107.2,78.1,107.2z"/>
				<path id="XMLID_877_" class="st67" d="M78.1,106.8c-37.4,0-67.7-30.3-67.7-67.7h13.3V18.2h112.5v20.9h9.8
					C145.9,76.5,115.5,106.8,78.1,106.8z"/>
				<path id="XMLID_876_" class="st68" d="M78.1,106.5c-37.2,0-67.4-30.2-67.4-67.4h12.9V18.2h112.5v20.9h9.5
					C145.5,76.3,115.4,106.5,78.1,106.5z"/>
				<path id="XMLID_875_" class="st69" d="M78.1,106.2c-37.1,0-67.1-30-67.1-67.1h12.6V18.2h112.5v20.9h9.1
					C145.2,76.1,115.2,106.2,78.1,106.2z"/>
				<path id="XMLID_874_" class="st70" d="M78.1,105.9c-36.9,0-66.8-29.9-66.8-66.8h12.3V18.2h112.5v20.9h8.8
					C144.9,76,115,105.9,78.1,105.9z"/>
				<path id="XMLID_873_" class="st71" d="M78.1,105.5c-36.7,0-66.4-29.7-66.4-66.4h11.9V18.2h112.5v20.9h8.5
					C144.5,75.8,114.8,105.5,78.1,105.5z"/>
				<path id="XMLID_872_" class="st71" d="M78.1,105.2C41.6,105.2,12,75.6,12,39.1h11.6V18.2h112.5v20.9h8.1
					C144.2,75.6,114.6,105.2,78.1,105.2z"/>
				<path id="XMLID_871_" class="st72" d="M78.1,104.9c-36.3,0-65.8-29.4-65.8-65.8h11.3V18.2h112.5v20.9h7.8
					C143.9,75.4,114.4,104.9,78.1,104.9z"/>
				<path id="XMLID_870_" class="st73" d="M78.1,104.5c-36.1,0-65.4-29.3-65.4-65.4h10.9V18.2h112.5v20.9h7.5
					C143.5,75.2,114.3,104.5,78.1,104.5z"/>
				<path id="XMLID_869_" class="st74" d="M78.1,104.2C42.2,104.2,13,75,13,39.1h10.6V18.2h112.5v20.9h7.1
					C143.2,75,114.1,104.2,78.1,104.2z"/>
				<path id="XMLID_868_" class="st75" d="M78.1,103.9c-35.8,0-64.8-29-64.8-64.8h10.3V18.2h112.5v20.9h6.8
					C142.9,74.9,113.9,103.9,78.1,103.9z"/>
				<path id="XMLID_867_" class="st75" d="M78.1,103.5c-35.6,0-64.4-28.8-64.4-64.4h9.9V18.2h112.5v20.9h6.5
					C142.5,74.7,113.7,103.5,78.1,103.5z"/>
				<path id="XMLID_866_" class="st75" d="M78.1,103.2C42.7,103.2,14,74.5,14,39.1h9.6V18.2h112.5v20.9h6.1
					C142.2,74.5,113.5,103.2,78.1,103.2z"/>
				<path id="XMLID_865_" class="st76" d="M78.1,102.9c-35.2,0-63.8-28.5-63.8-63.8h9.3V18.2h112.5v20.9h5.8
					C141.9,74.3,113.3,102.9,78.1,102.9z"/>
				<path id="XMLID_864_" class="st76" d="M78.1,102.5c-35,0-63.4-28.4-63.4-63.4h8.9V18.2h112.5v20.9h5.5
					C141.6,74.1,113.2,102.5,78.1,102.5z"/>
				<path id="XMLID_863_" class="st77" d="M78.1,102.2C43.3,102.2,15,73.9,15,39.1h8.6V18.2h112.5v20.9h5.1
					C141.2,73.9,113,102.2,78.1,102.2z"/>
				<path id="XMLID_862_" class="st77" d="M78.1,101.9c-34.7,0-62.8-28.1-62.8-62.8h8.3V18.2H136v-3.5c3.2,7.5,4.9,15.8,4.9,24.4
					C140.9,73.8,112.8,101.9,78.1,101.9z"/>
				<path id="XMLID_861_" class="st77" d="M78.1,101.5c-34.5,0-62.4-28-62.4-62.4h7.9V18.2h112v-3.4c3.2,7.5,4.9,15.7,4.9,24.3
					C140.6,73.6,112.6,101.5,78.1,101.5z"/>
				<path id="XMLID_860_" class="st78" d="M78.1,101.2C43.8,101.2,16,73.4,16,39.1h7.6V18.2h111.7v-3.3c3.1,7.4,4.9,15.6,4.9,24.2
					C140.2,73.4,112.4,101.2,78.1,101.2z"/>
				<path id="XMLID_859_" class="st79" d="M78.1,100.9c-34.1,0-61.8-27.7-61.8-61.8h7.3V18.2H135v-3.1c3.1,7.4,4.9,15.5,4.9,24
					C139.9,73.2,112.2,100.9,78.1,100.9z"/>
				<path id="XMLID_858_" class="st80" d="M78.1,100.5c-33.9,0-61.4-27.5-61.4-61.4h6.9V18.2h111.1v-3c3.1,7.4,4.8,15.4,4.8,23.9
					C139.6,73,112.1,100.5,78.1,100.5z"/>
				<path id="XMLID_857_" class="st81" d="M78.1,100.2C44.4,100.2,17,72.8,17,39.1h6.6V18.2h110.8v-2.9c3.1,7.3,4.8,15.4,4.8,23.8
					C139.2,72.8,111.9,100.2,78.1,100.2z"/>
				<path id="XMLID_856_" class="st82" d="M78.1,99.9c-33.6,0-60.8-27.2-60.8-60.8h6.3V18.2h110.5v-2.7c3.1,7.3,4.8,15.3,4.8,23.7
					C138.9,72.7,111.7,99.9,78.1,99.9z"/>
				<path id="XMLID_855_" class="st83" d="M78.1,99.5c-33.4,0-60.4-27.1-60.4-60.4h6V18.2h110.2v-2.6c3.1,7.2,4.8,15.2,4.8,23.5
					C138.6,72.5,111.5,99.5,78.1,99.5z"/>
				<path id="XMLID_854_" class="st84" d="M78.1,99.2C44.9,99.2,18,72.3,18,39.1h5.6V18.2h109.9v-2.5c3,7.2,4.7,15.1,4.7,23.4
					C138.2,72.3,111.3,99.2,78.1,99.2z"/>
				<path id="XMLID_853_" class="st85" d="M78.1,98.9c-33,0-59.8-26.8-59.8-59.8h5.3V18.2h109.6v-2.4c3,7.2,4.7,15,4.7,23.3
					C137.9,72.1,111.1,98.9,78.1,98.9z"/>
				<path id="XMLID_852_" class="st86" d="M78.1,98.6c-32.8,0-59.5-26.6-59.5-59.5h5V18.2h109.3V16c3,7.1,4.7,14.9,4.7,23.1
					C137.6,71.9,111,98.6,78.1,98.6z"/>
				<path id="XMLID_851_" class="st87" d="M78.1,98.2C45.5,98.2,19,71.7,19,39.1c0-8.2,1.7-15.9,4.6-23v2.1h109v-2.1
					c3,7.1,4.6,14.9,4.6,23C137.2,71.7,110.8,98.2,78.1,98.2z"/>
				<path id="XMLID_850_" class="st88" d="M78.1,97.9c-32.5,0-58.8-26.3-58.8-58.8c0-8.1,1.6-15.9,4.6-22.9v2h108.3v-2
					c3,7,4.6,14.8,4.6,22.9C136.9,71.6,110.6,97.9,78.1,97.9z"/>
				<path id="XMLID_849_" class="st89" d="M78.1,97.6c-32.3,0-58.5-26.2-58.5-58.5c0-8.1,1.6-15.8,4.6-22.8v1.8H132v-1.8
					c3,7,4.6,14.7,4.6,22.8C136.6,71.4,110.4,97.6,78.1,97.6z"/>
				<path id="XMLID_848_" class="st90" d="M78.1,97.2C46,97.2,20,71.2,20,39.1c0-8,1.6-15.7,4.6-22.6v1.7h107.1v-1.7
					c2.9,7,4.6,14.6,4.6,22.6C136.2,71.2,110.2,97.2,78.1,97.2z"/>
				<path id="XMLID_847_" class="st91" d="M78.1,96.9c-31.9,0-57.8-25.9-57.8-57.8c0-8,1.6-15.6,4.5-22.5v1.6h106.5v-1.6
					c2.9,6.9,4.5,14.5,4.5,22.5C135.9,71,110,96.9,78.1,96.9z"/>
				<path id="XMLID_846_" class="st92" d="M78.1,96.6c-31.7,0-57.5-25.7-57.5-57.5c0-7.9,1.6-15.5,4.5-22.4v1.5h105.9v-1.5
					c2.9,6.9,4.5,14.4,4.5,22.4C135.6,70.8,109.9,96.6,78.1,96.6z"/>
				<path id="XMLID_845_" class="st92" d="M78.1,96.2C46.6,96.2,21,70.6,21,39.1c0-7.9,1.6-15.4,4.5-22.2v1.3h105.3v-1.3
					c2.9,6.8,4.5,14.4,4.5,22.2C135.2,70.6,109.7,96.2,78.1,96.2z"/>
				<path id="XMLID_844_" class="st93" d="M78.1,95.9c-31.4,0-56.8-25.4-56.8-56.8c0-7.8,1.6-15.3,4.5-22.1v1.2h104.7V17
					c2.9,6.8,4.5,14.3,4.5,22.1C134.9,70.5,109.5,95.9,78.1,95.9z"/>
				<path id="XMLID_843_" class="st93" d="M78.1,95.6c-31.2,0-56.5-25.3-56.5-56.5c0-7.8,1.6-15.2,4.4-22v1.1h104.1v-1.1
					c2.9,6.8,4.4,14.2,4.4,22C134.6,70.3,109.3,95.6,78.1,95.6z"/>
				<path id="XMLID_842_" class="st94" d="M78.1,95.2c-31,0-56.1-25.1-56.1-56.1c0-7.8,1.6-15.1,4.4-21.9v0.9h103.4v-0.9
					c2.8,6.7,4.4,14.1,4.4,21.9C134.3,70.1,109.1,95.2,78.1,95.2z"/>
				<path id="XMLID_841_" class="st94" d="M78.1,94.9c-30.8,0-55.8-25-55.8-55.8c0-7.7,1.6-15,4.4-21.7v0.8h102.8v-0.8
					c2.8,6.7,4.4,14,4.4,21.7C133.9,69.9,108.9,94.9,78.1,94.9z"/>
				<path id="XMLID_840_" class="st94" d="M78.1,94.6c-30.6,0-55.5-24.8-55.5-55.5c0-7.7,1.6-15,4.4-21.6v0.7h102.2v-0.7
					c2.8,6.6,4.4,13.9,4.4,21.6C133.6,69.7,108.8,94.6,78.1,94.6z"/>
				<path id="XMLID_839_" class="st95" d="M78.1,94.2C47.7,94.2,23,69.6,23,39.1c0-7.6,1.5-14.9,4.3-21.5v0.5h101.6v-0.5
					c2.8,6.6,4.3,13.8,4.3,21.5C133.3,69.6,108.6,94.2,78.1,94.2z"/>
				<path id="XMLID_838_" class="st95" d="M78.1,93.9c-30.3,0-54.8-24.5-54.8-54.8c0-7.6,1.5-14.8,4.3-21.3v0.4h101v-0.4
					c2.8,6.6,4.3,13.8,4.3,21.3C132.9,69.4,108.4,93.9,78.1,93.9z"/>
				<path id="XMLID_837_" class="st96" d="M78.1,93.6c-30.1,0-54.5-24.4-54.5-54.5c0-7.5,1.5-14.7,4.3-21.2v0.3h100.4v-0.3
					c2.8,6.5,4.3,13.7,4.3,21.2C132.6,69.2,108.2,93.6,78.1,93.6z"/>
				<path id="XMLID_836_" class="st97" d="M78.1,93.2C48.2,93.2,24,69,24,39.1c0-7.5,1.5-14.6,4.3-21.1v0.2H128V18
					c2.7,6.5,4.3,13.6,4.3,21.1C132.3,69,108,93.2,78.1,93.2z"/>
				<path id="XMLID_835_" class="st96" d="M78.1,92.9c-29.7,0-53.8-24.1-53.8-53.8c0-7.4,1.5-14.5,4.2-20.9v0h99.2v0
					c2.7,6.4,4.2,13.5,4.2,20.9C131.9,68.8,107.8,92.9,78.1,92.9z"/>
				<path id="XMLID_834_" class="st98" d="M78.1,92.6c-29.5,0-53.5-23.9-53.5-53.5c0-7.4,1.5-14.4,4.2-20.8c1.4-3.2,3-6.2,4.9-9.1v9
					h88.7v-9c1.9,2.8,3.6,5.9,4.9,9.1c2.7,6.4,4.2,13.4,4.2,20.8C131.6,68.6,107.7,92.6,78.1,92.6z"/>
				<path id="XMLID_833_" class="st99" d="M78.1,92.2C48.8,92.2,25,68.5,25,39.1c0-7.3,1.5-14.3,4.2-20.7c1.3-3.2,3-6.2,4.9-9v8.8
					h88.1V9.4c1.9,2.8,3.6,5.8,4.9,9c2.7,6.4,4.2,13.3,4.2,20.7C131.3,68.5,107.5,92.2,78.1,92.2z"/>
				<path id="XMLID_832_" class="st100" d="M78.1,91.9c-29.2,0-52.8-23.6-52.8-52.8c0-7.3,1.5-14.2,4.2-20.6c1.3-3.2,3-6.2,4.9-9
					v8.6h87.6V9.6c1.9,2.8,3.5,5.8,4.9,9c2.7,6.3,4.2,13.3,4.2,20.6C130.9,68.3,107.3,91.9,78.1,91.9z"/>
				<path id="XMLID_831_" class="st100" d="M78.1,91.6c-29,0-52.5-23.5-52.5-52.5c0-7.2,1.5-14.2,4.1-20.4c1.3-3.1,3-6.1,4.8-8.9
					v8.4h87V9.8c1.9,2.8,3.5,5.8,4.8,8.9c2.7,6.3,4.1,13.2,4.1,20.4C130.6,68.1,107.1,91.6,78.1,91.6z"/>
				<path id="XMLID_830_" class="st101" d="M78.1,91.3C49.3,91.3,26,67.9,26,39.1c0-7.2,1.5-14.1,4.1-20.3c1.3-3.1,2.9-6.1,4.8-8.9
					v8.2h86.5V9.9c1.9,2.8,3.5,5.7,4.8,8.9c2.6,6.2,4.1,13.1,4.1,20.3C130.3,67.9,106.9,91.3,78.1,91.3z"/>
				<path id="XMLID_829_" class="st102" d="M78.1,90.9c-28.6,0-51.8-23.2-51.8-51.8c0-7.2,1.5-14,4.1-20.2c1.3-3.1,2.9-6,4.8-8.8
					v8.1h85.9v-8.1c1.9,2.8,3.5,5.7,4.8,8.8c2.6,6.2,4.1,13,4.1,20.2C129.9,67.7,106.7,90.9,78.1,90.9z"/>
				<path id="XMLID_828_" class="st103" d="M78.1,90.6c-28.4,0-51.5-23.1-51.5-51.5c0-7.1,1.4-13.9,4-20c1.3-3.1,2.9-6,4.7-8.7v7.9
					h85.4v-7.9c1.9,2.7,3.4,5.7,4.7,8.7c2.6,6.2,4,12.9,4,20C129.6,67.5,106.6,90.6,78.1,90.6z"/>
				<path id="XMLID_827_" class="st104" d="M78.1,90.3C49.9,90.3,27,67.4,27,39.1c0-7.1,1.4-13.8,4-19.9c1.3-3.1,2.9-6,4.7-8.7v7.7
					h84.8v-7.7c1.8,2.7,3.4,5.6,4.7,8.7c2.6,6.1,4,12.8,4,19.9C129.3,67.4,106.4,90.3,78.1,90.3z"/>
				<path id="XMLID_826_" class="st105" d="M78.1,89.9c-28.1,0-50.8-22.8-50.8-50.8c0-7,1.4-13.7,4-19.8c1.3-3,2.9-5.9,4.7-8.6v7.5
					h84.3v-7.5c1.8,2.7,3.4,5.6,4.7,8.6c2.6,6.1,4,12.8,4,19.8C128.9,67.2,106.2,89.9,78.1,89.9z"/>
				<path id="XMLID_825_" class="st106" d="M78.1,89.6c-27.9,0-50.5-22.6-50.5-50.5c0-13.9,5.7-26.6,14.8-35.7v14.8h71.4V3.4
					c9.1,9.1,14.8,21.8,14.8,35.7C128.6,67,106,89.6,78.1,89.6z"/>
				<path id="XMLID_824_" class="st107" d="M78.1,89.3C50.4,89.3,28,66.8,28,39.1c0-13.9,5.6-26.4,14.7-35.5v14.6h70.9V3.6
					c9.1,9.1,14.7,21.6,14.7,35.5C128.3,66.8,105.8,89.3,78.1,89.3z"/>
				<path id="XMLID_823_" class="st107" d="M78.1,88.9c-27.5,0-49.8-22.3-49.8-49.8c0-13.8,5.6-26.2,14.6-35.2v14.3h70.5V3.9
					c9,9,14.6,21.5,14.6,35.2C128,66.6,105.6,88.9,78.1,88.9z"/>
				<path id="XMLID_822_" class="st108" d="M78.1,88.6c-27.3,0-49.5-22.2-49.5-49.5c0-13.7,5.5-26,14.5-35v14.1h70V4.1
					c9,9,14.5,21.3,14.5,35C127.6,66.4,105.5,88.6,78.1,88.6z"/>
				<path id="XMLID_821_" class="st109" d="M78.1,88.3c-27.2,0-49.2-22-49.2-49.2c0-13.6,5.5-25.9,14.4-34.8v13.9h69.5V4.3
					c8.9,8.9,14.4,21.2,14.4,34.8C127.3,66.3,105.3,88.3,78.1,88.3z"/>
				<path id="XMLID_820_" class="st109" d="M78.1,87.9c-27,0-48.8-21.9-48.8-48.8c0-13.5,5.5-25.7,14.3-34.5v13.6h69.1V4.6
					c8.8,8.8,14.3,21,14.3,34.5C127,66.1,105.1,87.9,78.1,87.9z"/>
				<path id="XMLID_819_" class="st110" d="M78.1,87.6c-26.8,0-48.5-21.7-48.5-48.5c0-13.4,5.4-25.5,14.2-34.3v13.4h68.6V4.8
					c8.8,8.8,14.2,20.9,14.2,34.3C126.6,65.9,104.9,87.6,78.1,87.6z"/>
				<path id="XMLID_818_" class="st111" d="M78.1,87.3c-26.6,0-48.2-21.6-48.2-48.2c0-13.3,5.4-25.3,14.1-34.1v13.1h68.1V5
					c8.7,8.7,14.1,20.8,14.1,34.1C126.3,65.7,104.7,87.3,78.1,87.3z"/>
				<path id="XMLID_817_" class="st112" d="M78.1,86.9c-26.4,0-47.8-21.4-47.8-47.8c0-13.2,5.4-25.2,14-33.8v12.9h67.7V5.3
					c8.7,8.7,14,20.6,14,33.8C126,65.5,104.5,86.9,78.1,86.9z"/>
				<path id="XMLID_816_" class="st112" d="M78.1,86.6c-26.2,0-47.5-21.3-47.5-47.5c0-13.1,5.3-25,13.9-33.6v12.7h67.2V5.5
					c8.6,8.6,13.9,20.5,13.9,33.6C125.6,65.3,104.4,86.6,78.1,86.6z"/>
				<path id="XMLID_815_" class="st113" d="M78.1,86.3c-26.1,0-47.2-21.1-47.2-47.2c0-13,5.3-24.8,13.8-33.4v12.4h66.7V5.7
					c8.5,8.5,13.8,20.3,13.8,33.4C125.3,65.2,104.2,86.3,78.1,86.3z"/>
				<path id="XMLID_814_" class="st113" d="M78.1,85.9c-25.9,0-46.8-21-46.8-46.8C31.3,26.2,36.5,14.4,45,6v12.2h66.3V6
					c8.5,8.5,13.7,20.2,13.7,33.1C125,65,104,85.9,78.1,85.9z"/>
				<path id="XMLID_813_" class="st114" d="M78.1,85.6c-25.7,0-46.5-20.8-46.5-46.5c0-12.8,5.2-24.5,13.6-32.9v12H111v-12
					c8.4,8.4,13.6,20,13.6,32.9C124.6,64.8,103.8,85.6,78.1,85.6z"/>
				<path id="XMLID_812_" class="st115" d="M78.1,85.3c-25.5,0-46.2-20.7-46.2-46.2c0-12.8,5.2-24.3,13.5-32.7v11.7h65.3V6.4
					c8.4,8.4,13.5,19.9,13.5,32.7C124.3,64.6,103.6,85.3,78.1,85.3z"/>
				<path id="XMLID_811_" class="st116" d="M78.1,84.9c-25.3,0-45.9-20.5-45.9-45.9c0-12.7,5.1-24.1,13.4-32.4v11.5h64.8V6.7
					C118.8,15,124,26.4,124,39.1C124,64.4,103.4,84.9,78.1,84.9z"/>
				<path id="XMLID_810_" class="st117" d="M78.1,84.6c-25.1,0-45.5-20.4-45.5-45.5c0-12.6,5.1-23.9,13.3-32.2v11.3h64.4V6.9
					c8.2,8.2,13.3,19.6,13.3,32.2C123.6,64.2,103.3,84.6,78.1,84.6z"/>
				<path id="XMLID_809_" class="st118" d="M78.1,84.3c-25,0-45.2-20.2-45.2-45.2c0-12.5,5.1-23.8,13.2-32v11h63.9v-11
					c8.2,8.2,13.2,19.5,13.2,32C123.3,64.1,103.1,84.3,78.1,84.3z"/>
				<path id="XMLID_808_" class="st119" d="M78.1,84c-24.8,0-44.9-20.1-44.9-44.9c0-12.4,5-23.6,13.1-31.7v10.8h63.4V7.4
					C118,15.5,123,26.7,123,39.1C123,63.9,102.9,84,78.1,84z"/>
				<path id="XMLID_807_" class="st120" d="M78.1,83.6c-24.6,0-44.5-19.9-44.5-44.5c0-12.3,5-23.4,13-31.5v10.6h63V7.6
					c8.1,8.1,13,19.2,13,31.5C122.6,63.7,102.7,83.6,78.1,83.6z"/>
				<path id="XMLID_806_" class="st121" d="M78.1,83.3c-24.4,0-44.2-19.8-44.2-44.2c0-12.2,4.9-23.3,12.9-31.2v10.3h62.5V7.8
					c8,8,12.9,19,12.9,31.2C122.3,63.5,102.5,83.3,78.1,83.3z"/>
				<path id="XMLID_805_" class="st122" d="M78.1,83c-24.2,0-43.9-19.6-43.9-43.9c0-12.1,4.9-23.1,12.8-31v10.1h62V8.1
					C117.1,16,122,27,122,39.1C122,63.3,102.3,83,78.1,83z"/>
				<path id="XMLID_804_" class="st123" d="M78.1,82.6c-24,0-43.5-19.5-43.5-43.5c0-12,4.9-22.9,12.7-30.8v9.9h61.6V8.3
					c7.9,7.9,12.7,18.8,12.7,30.8C121.6,63.1,102.2,82.6,78.1,82.6z"/>
				<path id="XMLID_803_" class="st124" d="M78.1,82.3c-23.9,0-43.2-19.3-43.2-43.2c0-11.9,4.8-22.7,12.7-30.5v9.6h61.1V8.6
					c7.8,7.8,12.7,18.6,12.7,30.5C121.3,63,102,82.3,78.1,82.3z"/>
				<path id="XMLID_802_" class="st125" d="M78.1,82c-23.7,0-42.9-19.2-42.9-42.9c0-11.8,4.8-22.6,12.6-30.3v9.4h60.6V8.8
					c7.8,7.8,12.6,18.5,12.6,30.3C121,62.8,101.8,82,78.1,82z"/>
				<path id="XMLID_801_" class="st126" d="M78.1,81.6c-23.5,0-42.5-19-42.5-42.5C35.6,27.4,40.3,16.7,48,9v9.2h60.2V9
					c7.7,7.7,12.5,18.3,12.5,30.1C120.7,62.6,101.6,81.6,78.1,81.6z"/>
				<path id="XMLID_800_" class="st127" d="M78.1,81.3c-23.3,0-42.2-18.9-42.2-42.2c0-11.7,4.7-22.2,12.4-29.8v8.9H108V9.3
					c7.6,7.6,12.4,18.2,12.4,29.8C120.3,62.4,101.4,81.3,78.1,81.3z"/>
				<path id="XMLID_799_" class="st128" d="M78.1,81C55,81,36.2,62.2,36.2,39.1c0-11.6,4.7-22,12.3-29.6v8.7h59.2V9.5
					c7.6,7.6,12.3,18,12.3,29.6C120,62.2,101.2,81,78.1,81z"/>
				<path id="XMLID_798_" class="st129" d="M78.1,80.6c-22.9,0-41.5-18.6-41.5-41.5c0-11.5,4.6-21.9,12.2-29.4v8.5h58.7V9.7
					c7.5,7.5,12.2,17.9,12.2,29.4C119.7,62,101.1,80.6,78.1,80.6z"/>
				<path id="XMLID_797_" class="st130" d="M78.1,80.3c-22.8,0-41.2-18.4-41.2-41.2c0-11.4,4.6-21.7,12.1-29.1v8.2h58.3V10
					c7.5,7.5,12.1,17.8,12.1,29.1C119.3,61.9,100.9,80.3,78.1,80.3z"/>
				<path id="XMLID_796_" class="st131" d="M78.1,80c-22.6,0-40.9-18.3-40.9-40.9c0-11.3,4.6-21.5,12-28.9v8H107v-8
					c7.4,7.4,12,17.6,12,28.9C119,61.7,100.7,80,78.1,80z"/>
				<path id="XMLID_795_" class="st131" d="M78.1,79.6c-22.4,0-40.5-18.2-40.5-40.5c0-11.2,4.5-21.3,11.9-28.7v7.8h57.3v-7.8
					c7.3,7.3,11.9,17.5,11.9,28.7C118.7,61.5,100.5,79.6,78.1,79.6z"/>
				<path id="XMLID_794_" class="st132" d="M78.1,79.3c-22.2,0-40.2-18-40.2-40.2c0-11.1,4.5-21.2,11.8-28.4v7.5h56.9v-7.5
					c7.3,7.3,11.8,17.3,11.8,28.4C118.3,61.3,100.3,79.3,78.1,79.3z"/>
				<path id="XMLID_793_" class="st133" d="M78.1,79c-22,0-39.9-17.9-39.9-39.9c0-11,4.5-21,11.7-28.2v7.3h56.4v-7.3
					c7.2,7.2,11.7,17.2,11.7,28.2C118,61.1,100.1,79,78.1,79z"/>
				<path id="XMLID_792_" class="st134" d="M78.1,78.6c-21.8,0-39.5-17.7-39.5-39.5c0-10.9,4.4-20.8,11.6-28v7h55.9v-7
					c7.2,7.2,11.6,17,11.6,28C117.7,60.9,100,78.6,78.1,78.6z"/>
				<path id="XMLID_791_" class="st135" d="M78.1,78.3c-21.7,0-39.2-17.6-39.2-39.2c0-10.8,4.4-20.6,11.5-27.7v6.8h55.5v-6.8
					c7.1,7.1,11.5,16.9,11.5,27.7C117.3,60.8,99.8,78.3,78.1,78.3z"/>
				<path id="XMLID_790_" class="st136" d="M78.1,78c-21.5,0-38.9-17.4-38.9-38.9c0-10.7,4.4-20.5,11.4-27.5v6.6h55v-6.6
					c7,7,11.4,16.8,11.4,27.5C117,60.6,99.6,78,78.1,78z"/>
				<path id="XMLID_789_" class="st137" d="M78.1,77.6c-21.3,0-38.6-17.3-38.6-38.6c0-10.6,4.3-20.3,11.3-27.3v6.3h54.5v-6.3
					c7,7,11.3,16.6,11.3,27.3C116.7,60.4,99.4,77.6,78.1,77.6z"/>
				<path id="XMLID_788_" class="st138" d="M78.1,77.3c-21.1,0-38.2-17.1-38.2-38.2c0-10.6,4.3-20.1,11.2-27v6.1h54.1v-6.1
					c6.9,6.9,11.2,16.5,11.2,27C116.3,60.2,99.2,77.3,78.1,77.3z"/>
				<path id="XMLID_787_" class="st139" d="M78.1,77c-20.9,0-37.9-17-37.9-37.9c0-10.5,4.2-19.9,11.1-26.8v5.9h53.6v-5.9
					c6.9,6.9,11.1,16.3,11.1,26.8C116,60,99,77,78.1,77z"/>
				<path id="XMLID_786_" class="st140" d="M78.1,76.7c-20.7,0-37.6-16.8-37.6-37.6c0-10.4,4.2-19.8,11-26.6v5.6h53.1v-5.6
					c6.8,6.8,11,16.2,11,26.6C115.7,59.8,98.9,76.7,78.1,76.7z"/>
				<path id="XMLID_785_" class="st141" d="M78.1,76.3c-20.6,0-37.2-16.7-37.2-37.2c0-10.3,4.2-19.6,10.9-26.3v5.4h52.6v-5.4
					c6.7,6.7,10.9,16,10.9,26.3C115.3,59.7,98.7,76.3,78.1,76.3z"/>
				<path id="XMLID_784_" class="st141" d="M78.1,76c-20.4,0-36.9-16.5-36.9-36.9c0-10.2,4.1-19.4,10.8-26.1v5.2h52.2V13
					c6.7,6.7,10.8,15.9,10.8,26.1C115,59.5,98.5,76,78.1,76z"/>
				<path id="XMLID_783_" class="st142" d="M78.1,75.7c-20.2,0-36.6-16.4-36.6-36.6c0-10.1,4.1-19.2,10.7-25.9v4.9H104v-4.9
					c6.6,6.6,10.7,15.8,10.7,25.9C114.7,59.3,98.3,75.7,78.1,75.7z"/>
				<path id="XMLID_782_" class="st142" d="M78.1,75.3c-20,0-36.2-16.2-36.2-36.2c0-10,4.1-19.1,10.6-25.6v4.7h51.2v-4.7
					c6.6,6.6,10.6,15.6,10.6,25.6C114.3,59.1,98.1,75.3,78.1,75.3z"/>
				<path id="XMLID_781_" class="st143" d="M78.1,75c-19.8,0-35.9-16.1-35.9-35.9c0-9.9,4-18.9,10.5-25.4v4.5h50.8v-4.5
					C110,20.2,114,29.2,114,39.1C114,58.9,97.9,75,78.1,75z"/>
				<circle id="XMLID_780_" class="st143" cx="78.1" cy="39.1" r="35.6"/>
				<circle id="XMLID_779_" class="st144" cx="78.1" cy="39.1" r="35.2"/>
				<circle id="XMLID_778_" class="st145" cx="78.1" cy="39.1" r="34.9"/>
				<circle id="XMLID_777_" class="st146" cx="78.1" cy="39.1" r="34.6"/>
				<circle id="XMLID_776_" class="st147" cx="78.1" cy="39.1" r="34.2"/>
				<circle id="XMLID_775_" class="st148" cx="78.1" cy="39.1" r="33.9"/>
				<circle id="XMLID_774_" class="st149" cx="78.1" cy="39.1" r="33.6"/>
				<circle id="XMLID_773_" class="st150" cx="78.1" cy="39.1" r="33.2"/>
				<circle id="XMLID_772_" class="st151" cx="78.1" cy="39.1" r="32.9"/>
				<circle id="XMLID_771_" class="st152" cx="78.1" cy="39.1" r="32.6"/>
				<circle id="XMLID_770_" class="st153" cx="78.1" cy="39.1" r="32.2"/>
				<circle id="XMLID_769_" class="st153" cx="78.1" cy="39.1" r="31.9"/>
				<circle id="XMLID_768_" class="st154" cx="78.1" cy="39.1" r="31.6"/>
				<circle id="XMLID_767_" class="st155" cx="78.1" cy="39.1" r="31.3"/>
				<circle id="XMLID_766_" class="st156" cx="78.1" cy="39.1" r="30.9"/>
				<circle id="XMLID_765_" class="st157" cx="78.1" cy="39.1" r="30.6"/>
				<circle id="XMLID_764_" class="st158" cx="78.1" cy="39.1" r="30.3"/>
				<circle id="XMLID_763_" class="st159" cx="78.1" cy="39.1" r="29.9"/>
				<circle id="XMLID_762_" class="st160" cx="78.1" cy="39.1" r="29.6"/>
				<circle id="XMLID_761_" class="st161" cx="78.1" cy="39.1" r="29.3"/>
				<circle id="XMLID_760_" class="st162" cx="78.1" cy="39.1" r="28.9"/>
				<circle id="XMLID_759_" class="st162" cx="78.1" cy="39.1" r="28.6"/>
				<circle id="XMLID_758_" class="st163" cx="78.1" cy="39.1" r="28.3"/>
				<circle id="XMLID_757_" class="st163" cx="78.1" cy="39.1" r="27.9"/>
				<circle id="XMLID_756_" class="st164" cx="78.1" cy="39.1" r="27.6"/>
				<circle id="XMLID_755_" class="st164" cx="78.1" cy="39.1" r="27.3"/>
				<circle id="XMLID_754_" class="st165" cx="78.1" cy="39.1" r="26.9"/>
				<circle id="XMLID_753_" class="st165" cx="78.1" cy="39.1" r="26.6"/>
				<circle id="XMLID_752_" class="st166" cx="78.1" cy="39.1" r="26.3"/>
				<circle id="XMLID_751_" class="st167" cx="78.1" cy="39.1" r="25.9"/>
				<circle id="XMLID_750_" class="st167" cx="78.1" cy="39.1" r="25.6"/>
				<circle id="XMLID_749_" class="st168" cx="78.1" cy="39.1" r="25.3"/>
				<circle id="XMLID_748_" class="st169" cx="78.1" cy="39.1" r="24.9"/>
				<circle id="XMLID_747_" class="st170" cx="78.1" cy="39.1" r="24.6"/>
				<circle id="XMLID_746_" class="st171" cx="78.1" cy="39.1" r="24.3"/>
				<circle id="XMLID_745_" class="st172" cx="78.1" cy="39.1" r="24"/>
				<circle id="XMLID_744_" class="st173" cx="78.1" cy="39.1" r="23.6"/>
				<circle id="XMLID_743_" class="st174" cx="78.1" cy="39.1" r="23.3"/>
				<circle id="XMLID_306_" class="st175" cx="78.1" cy="39.1" r="23"/>
				<circle id="XMLID_304_" class="st176" cx="78.1" cy="39.1" r="22.6"/>
				<circle id="XMLID_302_" class="st177" cx="78.1" cy="39.1" r="22.3"/>
				<circle id="XMLID_300_" class="st178" cx="78.1" cy="39.1" r="22"/>
				<circle id="XMLID_298_" class="st179" cx="78.1" cy="39.1" r="21.6"/>
				<circle id="XMLID_297_" class="st180" cx="78.1" cy="39.1" r="21.3"/>
				<circle id="XMLID_292_" class="st181" cx="78.1" cy="39.1" r="21"/>
				<circle id="XMLID_291_" class="st182" cx="78.1" cy="39.1" r="20.6"/>
				<circle id="XMLID_290_" class="st183" cx="78.1" cy="39.1" r="20.3"/>
				<circle id="XMLID_289_" class="st184" cx="78.1" cy="39.1" r="20"/>
				<circle id="XMLID_288_" class="st185" cx="78.1" cy="39.1" r="19.6"/>
				<circle id="XMLID_287_" class="st186" cx="78.1" cy="39.1" r="19.3"/>
				<circle id="XMLID_282_" class="st187" cx="78.1" cy="39.1" r="19"/>
				<circle id="XMLID_281_" class="st188" cx="78.1" cy="39.1" r="18.6"/>
				<circle id="XMLID_280_" class="st188" cx="78.1" cy="39.1" r="18.3"/>
				<circle id="XMLID_238_" class="st189" cx="78.1" cy="39.1" r="18"/>
				<circle id="XMLID_237_" class="st189" cx="78.1" cy="39.1" r="17.6"/>
				<circle id="XMLID_236_" class="st190" cx="78.1" cy="39.1" r="17.3"/>
				<circle id="XMLID_233_" class="st191" cx="78.1" cy="39.1" r="17"/>
				<circle id="XMLID_231_" class="st192" cx="78.1" cy="39.1" r="16.7"/>
				<circle id="XMLID_230_" class="st193" cx="78.1" cy="39.1" r="16.3"/>
				<circle id="XMLID_229_" class="st194" cx="78.1" cy="39.1" r="16"/>
				<circle id="XMLID_228_" class="st195" cx="78.1" cy="39.1" r="15.7"/>
				<circle id="XMLID_227_" class="st195" cx="78.1" cy="39.1" r="15.3"/>
			</g>
		</g>
	</g>
	<g id="XMLID_13_">
		<g id="XMLID_214_">
			<g id="XMLID_216_">
				<path id="XMLID_218_" class="st1" d="M76.9,56c-0.9-0.4-1.7-0.9-2.5-1.3c-1-0.5-1-0.7-0.3-1.6c2.1-2.9,5.2-4.3,8.6-5.3
					c0.7-0.2,1.4-0.3,2.1-0.5c1.4-0.3,2.7-0.3,4.1,0c0.8,0.2,1.6,0.4,2.5,0.5c0.1,0,0.2,0,0.4,0c-0.6-0.3-1-0.6-1.5-0.8
					c-0.7-0.3-1-1.4-0.3-2c0.5-0.4,0.9-1,1.4-1.5c0,0,0-0.1,0-0.2c-0.2,0.1-0.3,0.1-0.5,0.2c-0.3,0.1-0.7,0.3-1,0.4
					c-1.3,0.6-2.5,0.5-3.8-0.3c-1.2-0.8-2.2-1.8-3.1-2.7c-0.1-0.1-0.2-0.3-0.1-0.4c0.2-0.8,0.4-1.7,0.6-2.5c0.1-0.4,0.3-0.5,0.7-0.4
					c3.7,0.3,7.4,0.7,11.2,1c0.7,0.1,1.3,0.4,1.7,0.8c0.2,0.3,0.4,0.7,0.4,1c-0.1,3.7-0.3,7.3-0.5,11c0,0.3,0,0.5,0,0.8
					c0.1,0.5-0.2,0.8-0.6,1c-1.5,0.7-3,1.4-4.6,2c-2.6,1.1-5.1,2.3-7.7,3.4c-0.2,0.1-0.5,0.4-0.5,0.6l-2.3,7.8h23.4l-35.5,51
					l9.8-35.9H55.1l12.7-27.3c0.1-0.2,0-0.5-0.1-0.7c-0.5-1-1-2-1.5-3c-0.5-1-0.8-2.1-0.7-3.2c0.2-1.6,0.2-3.3,0.4-4.9
					c0.1-1.1,0.5-2.1,1.1-3.1c0.5,0.8,0.9,1.5,1.3,2.2c0.8,1.2,1.5,2.5,2.3,3.7c0.1,0.2,0.3,0.3,0.6,0.2c1-0.3,1.9-0.5,2.9-0.7
					c1.2-0.3,2.4-0.4,3.7-0.1c1.7,0.5,3.5,0.8,5.3,1.3c-0.1,0-0.2,0.1-0.3,0.1c-2.4,0.5-4.7,1.4-6.8,2.7c-1.9,1.2-3.4,2.8-4.2,4.9
					c-0.2,0.4-0.1,0.7,0.2,0.9c0.7,0.5,1.3,0.8,2.1,0.9c0.1,0,0.4,0.1,0.4,0.1l-2.8,7.9"/>
			</g>
		</g>
		<g id="XMLID_210_">
			<path id="XMLID_213_" class="st1" d="M73.4,33.8c0.5,3.4,1.7,6.7,2.7,9.5c0,0.1,0.2,0.2,0.3,0.3c1.3,0.3,2.6,0.6,3.9,0.8l0.8,0.2
				c0-0.3-0.1-0.6-0.1-0.9l-2.1-11.4c-0.1-0.3-0.2-0.3-0.4-0.3c-0.1,0-0.3,0-0.4,0c-1.6,0-3,0.4-4.3,1.1
				C73.4,33.3,73.3,33.5,73.4,33.8z"/>
		</g>
		<g id="XMLID_46_">
			<path id="XMLID_72_" class="st1" d="M67.6,35.8c-0.6,0.4-0.6,0.6-0.3,1.2c1.2,2.3,2.5,4.6,3.7,7l0.2,0.5c0,0.1,0.1,0.2,0.2,0.3
				c0,0,0,0,0,0c0,0,0.1,0,0.1,0c0.2,0,0.3,0,0.4,0c0.8-0.2,1.5-0.4,2.1-0.6c0.2-0.1,0.2-0.1,0.2-0.1c0,0,0-0.1-0.1-0.3
				c-0.6-2.2-1.2-4.4-1.9-6.5c-0.2-0.8-0.5-1.6-0.7-2.4c-0.1-0.4-0.2-0.4-0.7-0.4c-0.2,0-0.3,0-0.5,0.1
				C69.5,34.8,68.5,35.2,67.6,35.8z"/>
		</g>
		<g id="XMLID_19_">
			<path id="XMLID_21_" class="st1" d="M88.7,34.3c0.1,0.8,0.2,1.6,0.3,2.5c0,0,0,0,0.1,0c0.7,0.1,1.4,0.1,2.1,0.2
				c0.5,0,0.9,0.1,1.4,0.1c0.6,0.1,1.2,0.1,1.9,0.2l0.5,0c0-0.1,0-0.2,0-0.3l-0.1-1.7c-0.1-1.2-0.2-2.3-0.3-3.5c0-0.2,0-0.2,0-0.2
				s0,0-0.2,0c-0.9,0-1.8-0.1-2.7-0.1c-1-0.1-2-0.1-2.9-0.1c-0.1,0-0.2,0-0.3,0c0,0,0,0.1,0,0.3C88.5,32.5,88.6,33.4,88.7,34.3z"/>
		</g>
		<g id="XMLID_16_">
			<path id="XMLID_18_" class="st1" d="M86.6,31.5c0,0-0.1,0-0.1-0.1c-0.1-0.1-0.3-0.1-0.5-0.2c-0.6-0.1-1.1-0.1-1.6-0.1
				c-1.3,0-2.5,0.2-3.7,0.6c0,0-0.1,0.1-0.1,0.2c0,0.1,0,0.2,0,0.3c0.4,1.9,0.8,3.8,1.3,5.6c0-0.2,0.1-0.3,0.1-0.5
				c0.3-1,0.6-1.2,1.7-1.1c0.9,0.1,1.7,0.1,2.6,0.2l0.7,0l0-0.5C86.8,34.5,86.7,33,86.6,31.5z"/>
		</g>
		<g id="XMLID_14_">
			<path id="XMLID_15_" class="st1" d="M84.4,44l-1.6-1.2c0.2,0.8,0.4,1.6,0.6,2.4c0,0,0.1,0.1,0.1,0.1c0.8,0.1,1.6,0.1,2.4,0.2
				l0.5,0c0-0.1-0.1-0.2-0.2-0.3C85.5,44.9,85,44.4,84.4,44z"/>
		</g>
	</g>
</g>
</svg>
