<?xml version="1.0" encoding="utf-8"?>
<!-- Generator: Adobe Illustrator 19.1.0, SVG Export Plug-In . SVG Version: 6.00 Build 0)  -->
<svg version="1.1" id="Layer_1" xmlns="http://www.w3.org/2000/svg" xmlns:xlink="http://www.w3.org/1999/xlink" x="0px" y="0px"
	 viewBox="0 0 28.6 28.7" style="enable-background:new 0 0 28.6 28.7;" xml:space="preserve">
<style type="text/css">
	.st0{clip-path:url(#SVGID_2_);}
	.st1{clip-path:url(#SVGID_4_);fill:#28A8E0;}
	.st2{clip-path:url(#SVGID_6_);}
	.st3{clip-path:url(#SVGID_8_);enable-background:new    ;}
	.st4{clip-path:url(#SVGID_10_);}
	.st5{clip-path:url(#SVGID_12_);}
	.st6{clip-path:url(#SVGID_14_);fill:#F1F4F7;}
	.st7{clip-path:url(#SVGID_16_);}
	.st8{clip-path:url(#SVGID_18_);enable-background:new    ;}
	.st9{clip-path:url(#SVGID_20_);}
	.st10{clip-path:url(#SVGID_22_);}
	.st11{clip-path:url(#SVGID_24_);fill:#F1F4F7;}
	.st12{clip-path:url(#SVGID_26_);}
	.st13{clip-path:url(#SVGID_28_);fill:#F1F4F7;}
</style>
<g>
	<g>
		<defs>
			<circle id="SVGID_1_" cx="14.3" cy="14.4" r="14"/>
		</defs>
		<clipPath id="SVGID_2_">
			<use xlink:href="#SVGID_1_"  style="overflow:visible;"/>
		</clipPath>
		<g class="st0">
			<defs>
				<rect id="SVGID_3_" x="-1238.7" y="-2388.6" width="1440" height="2514"/>
			</defs>
			<clipPath id="SVGID_4_">
				<use xlink:href="#SVGID_3_"  style="overflow:visible;"/>
			</clipPath>
			<rect x="-4.7" y="-4.6" class="st1" width="38" height="38"/>
		</g>
	</g>
	<g>
		<defs>
			<polyline id="SVGID_5_" points="9.3,8.5 20.3,8.5 20.3,18.4 9.3,18.4 			"/>
		</defs>
		<clipPath id="SVGID_6_">
			<use xlink:href="#SVGID_5_"  style="overflow:visible;"/>
		</clipPath>
		<g class="st2">
			<defs>
				<rect id="SVGID_7_" x="-1238.7" y="-2388.6" width="1440" height="2514"/>
			</defs>
			<clipPath id="SVGID_8_">
				<use xlink:href="#SVGID_7_"  style="overflow:visible;"/>
			</clipPath>
			<g class="st3">
				<g>
					<defs>
						<rect id="SVGID_9_" x="12.3" y="11.4" width="8" height="7"/>
					</defs>
					<clipPath id="SVGID_10_">
						<use xlink:href="#SVGID_9_"  style="overflow:visible;"/>
					</clipPath>
					<g class="st4">
						<defs>
							<path id="SVGID_11_" d="M15.5,11.7v0.9c0,0,0,0,0,0c0,0,0,0,0,0c0.1-0.2,0.3-0.3,0.4-0.5c0.3-0.3,0.7-0.5,1.1-0.5
								c0.3-0.1,0.6-0.1,0.9,0c0.3,0,0.6,0.1,0.9,0.2c0.5,0.2,0.8,0.5,1.1,1c0.2,0.3,0.3,0.6,0.3,0.9c0.1,0.3,0.1,0.6,0.1,0.9
								c0,1.3,0,2.5,0,3.8v0.1H18c0,0,0,0,0,0c0,0,0,0,0,0v-3.6c0-0.2,0-0.4-0.1-0.5c0-0.2-0.1-0.3-0.2-0.4
								c-0.2-0.3-0.4-0.5-0.8-0.5c-0.2,0-0.4,0-0.7,0.1c-0.3,0.1-0.5,0.3-0.6,0.5c-0.1,0.1-0.2,0.3-0.2,0.4c0,0.1,0,0.2,0,0.3v3.7v0
								c0,0,0,0,0,0c0,0,0,0,0,0c0,0,0,0,0,0c-0.8,0-1.5,0-2.3,0c0,0,0,0,0,0c0-2.2,0-4.5,0-6.7c0,0,0,0,0,0c0,0,0,0,0,0
								C13.9,11.7,14.7,11.7,15.5,11.7C15.4,11.7,15.5,11.7,15.5,11.7"/>
						</defs>
						<clipPath id="SVGID_12_">
							<use xlink:href="#SVGID_11_"  style="overflow:visible;"/>
						</clipPath>
						<g class="st5">
							<defs>
								<rect id="SVGID_13_" x="9.3" y="8.4" width="11" height="11"/>
							</defs>
							<clipPath id="SVGID_14_">
								<use xlink:href="#SVGID_13_"  style="overflow:visible;"/>
							</clipPath>
							<rect x="8.1" y="6.6" class="st6" width="17.2" height="16.9"/>
						</g>
					</g>
				</g>
			</g>
		</g>
	</g>
	<g>
		<defs>
			<rect id="SVGID_15_" x="9.3" y="8.5" width="11" height="10"/>
		</defs>
		<clipPath id="SVGID_16_">
			<use xlink:href="#SVGID_15_"  style="overflow:visible;"/>
		</clipPath>
		<g class="st7">
			<defs>
				<rect id="SVGID_17_" x="-1238.7" y="-2388.6" width="1440" height="2514"/>
			</defs>
			<clipPath id="SVGID_18_">
				<use xlink:href="#SVGID_17_"  style="overflow:visible;"/>
			</clipPath>
			<g class="st8">
				<g>
					<defs>
						<rect id="SVGID_19_" x="9.3" y="8.4" width="3" height="10"/>
					</defs>
					<clipPath id="SVGID_20_">
						<use xlink:href="#SVGID_19_"  style="overflow:visible;"/>
					</clipPath>
					<g class="st9">
						<defs>
							<rect id="SVGID_21_" x="9.5" y="11.7" width="2.4" height="6.7"/>
						</defs>
						<clipPath id="SVGID_22_">
							<use xlink:href="#SVGID_21_"  style="overflow:visible;"/>
						</clipPath>
						<g class="st10">
							<defs>
								<rect id="SVGID_23_" x="9.3" y="8.4" width="11" height="11"/>
							</defs>
							<clipPath id="SVGID_24_">
								<use xlink:href="#SVGID_23_"  style="overflow:visible;"/>
							</clipPath>
							<rect x="4.5" y="6.7" class="st11" width="12.4" height="16.7"/>
						</g>
					</g>
					<g class="st9">
						<defs>
							<path id="SVGID_25_" d="M10.7,8.5c0.2,0,0.4,0,0.6,0.1c0.4,0.2,0.6,0.4,0.7,0.8c0.1,0.3,0,0.5-0.1,0.8
								c-0.1,0.3-0.4,0.5-0.7,0.6c-0.2,0.1-0.4,0.1-0.7,0.1c-0.2,0-0.4-0.1-0.5-0.1c-0.4-0.2-0.6-0.5-0.6-0.9c0-0.3,0-0.5,0.2-0.7
								c0.2-0.3,0.4-0.4,0.7-0.5C10.4,8.5,10.5,8.5,10.7,8.5"/>
						</defs>
						<clipPath id="SVGID_26_">
							<use xlink:href="#SVGID_25_"  style="overflow:visible;"/>
						</clipPath>
						<g class="st12">
							<defs>
								<rect id="SVGID_27_" x="9.3" y="8.4" width="11" height="11"/>
							</defs>
							<clipPath id="SVGID_28_">
								<use xlink:href="#SVGID_27_"  style="overflow:visible;"/>
							</clipPath>
							<rect x="4.3" y="3.5" class="st13" width="12.7" height="12.3"/>
						</g>
					</g>
				</g>
			</g>
		</g>
	</g>
</g>
</svg>
