<?xml version="1.0" encoding="utf-8"?>
<!-- Generator: Adobe Illustrator 19.1.0, SVG Export Plug-In . SVG Version: 6.00 Build 0)  -->
<svg version="1.1" id="Layer_1" xmlns="http://www.w3.org/2000/svg" xmlns:xlink="http://www.w3.org/1999/xlink" x="0px" y="0px"
	 viewBox="0 0 28.6 28.7" style="enable-background:new 0 0 28.6 28.7;" xml:space="preserve">
<style type="text/css">
	.st0{clip-path:url(#SVGID_2_);}
	.st1{clip-path:url(#SVGID_4_);fill:#28A8E0;}
	.st2{clip-path:url(#SVGID_6_);}
	.st3{clip-path:url(#SVGID_8_);enable-background:new    ;}
	.st4{clip-path:url(#SVGID_10_);}
	.st5{clip-path:url(#SVGID_12_);}
	.st6{clip-path:url(#SVGID_14_);fill:#F1F4F7;}
</style>
<g>
	<g>
		<defs>
			<circle id="SVGID_1_" cx="14.3" cy="14.5" r="14"/>
		</defs>
		<clipPath id="SVGID_2_">
			<use xlink:href="#SVGID_1_"  style="overflow:visible;"/>
		</clipPath>
		<g class="st0">
			<defs>
				<rect id="SVGID_3_" x="-1288.7" y="-2388.5" width="1440" height="2514"/>
			</defs>
			<clipPath id="SVGID_4_">
				<use xlink:href="#SVGID_3_"  style="overflow:visible;"/>
			</clipPath>
			<rect x="-4.7" y="-4.5" class="st1" width="38" height="38"/>
		</g>
	</g>
	<g>
		<defs>
			<polyline id="SVGID_5_" points="8.3,9.7 21.2,9.7 21.2,19.5 8.3,19.5 			"/>
		</defs>
		<clipPath id="SVGID_6_">
			<use xlink:href="#SVGID_5_"  style="overflow:visible;"/>
		</clipPath>
		<g class="st2">
			<defs>
				<rect id="SVGID_7_" x="-1288.7" y="-2388.5" width="1440" height="2514"/>
			</defs>
			<clipPath id="SVGID_8_">
				<use xlink:href="#SVGID_7_"  style="overflow:visible;"/>
			</clipPath>
			<g class="st3">
				<g>
					<defs>
						<rect id="SVGID_9_" x="8.3" y="9.5" width="13" height="10"/>
					</defs>
					<clipPath id="SVGID_10_">
						<use xlink:href="#SVGID_9_"  style="overflow:visible;"/>
					</clipPath>
					<g class="st4">
						<defs>
							<path id="SVGID_11_" d="M20.9,9.9c-0.2,0.6-0.6,1-1,1.3c0.5,0,0.9-0.2,1.4-0.3c0,0,0,0.1-0.1,0.1c-0.3,0.4-0.7,0.7-1.1,1
								c-0.1,0.1-0.1,0.1-0.1,0.2c0,0.6,0,1.1-0.2,1.7c-0.5,1.9-1.5,3.4-3.2,4.5c-0.9,0.6-1.9,0.9-3.1,1.1c-1.1,0.1-2.3,0.1-3.4-0.2
								c-0.6-0.2-1.1-0.4-1.6-0.7c0,0-0.1,0-0.1-0.1c0,0,0,0,0-0.1c1.4,0.1,2.7-0.2,3.8-1c-1.2-0.1-2-0.7-2.4-1.7
								c0.4,0,0.7,0,1.1-0.1c-0.6-0.2-1.1-0.4-1.5-0.9c-0.4-0.4-0.6-1-0.6-1.6c0.4,0.2,0.7,0.3,1.1,0.3c-1.2-0.9-1.4-2-0.8-3.3
								c0.2,0.2,0.4,0.4,0.6,0.6c1.3,1.2,2.9,1.9,4.7,2c0,0,0.1,0,0.1,0c0-0.2,0-0.4,0-0.6c0-1.1,0.9-2.2,2.1-2.4
								c0.8-0.1,1.6,0,2.3,0.6c0.1,0.1,0.3,0.2,0.4,0.1c0.4-0.1,0.8-0.3,1.1-0.4C20.6,10,20.7,9.9,20.9,9.9"/>
						</defs>
						<clipPath id="SVGID_12_">
							<use xlink:href="#SVGID_11_"  style="overflow:visible;"/>
						</clipPath>
						<g class="st5">
							<defs>
								<rect id="SVGID_13_" x="8.3" y="9.5" width="13" height="10"/>
							</defs>
							<clipPath id="SVGID_14_">
								<use xlink:href="#SVGID_13_"  style="overflow:visible;"/>
							</clipPath>
							<rect x="3.3" y="4.7" class="st6" width="22.8" height="19.8"/>
						</g>
					</g>
				</g>
			</g>
		</g>
	</g>
</g>
</svg>
